<svg xmlns="http://www.w3.org/2000/svg" width="217.791" height="62.204" viewBox="0 0 217.791 62.204"><defs><style>.a{fill:#fff;}.b{fill:#00c7fd;}</style></defs><g transform="translate(174.016 48.723)"><path class="a" d="M377.125,120.655l.877-1.292a5.315,5.315,0,0,0,3.568,1.5c1.69,0,2.691-.73,2.691-1.69,0-.939-.584-1.44-2.691-1.482-2.9-.1-4.048-1.043-4.048-2.92,0-1.732,1.586-3.109,3.985-3.109a6.193,6.193,0,0,1,4.131,1.481l-.813,1.273a5.071,5.071,0,0,0-3.339-1.315c-1.46,0-2.337.751-2.337,1.585,0,.856.542,1.377,2.442,1.461,3.087.084,4.3.98,4.3,2.921,0,1.878-1.732,3.213-4.361,3.213A6.421,6.421,0,0,1,377.125,120.655Z" transform="translate(-377.125 -108.846)"/><path class="a" d="M399.206,110.15h-1.377v-1.5h1.377V105.56h1.69v3.088h2.336v1.5H400.9v5.737c0,.96.462,1.314,1.23,1.314h1.108v1.523h-1.357c-1.878,0-2.671-.834-2.671-2.691Z" transform="translate(-388.273 -105.56)"/><path class="a" d="M411.117,117a5.221,5.221,0,0,1,5.279-5.341,5.164,5.164,0,0,1,5.216,5.32,5.221,5.221,0,0,1-5.279,5.341A5.165,5.165,0,0,1,411.117,117Zm8.763-.021a3.53,3.53,0,1,0-3.505,3.86,3.652,3.652,0,0,0,3.505-3.86Z" transform="translate(-395.426 -108.846)"/><path class="a" d="M438.2,113.449a3.268,3.268,0,0,1,2.921-1.335h.918v1.609H441.1c-1.939,0-2.879,1.022-2.879,3.025v5.508h-1.69V112.177h1.67Z" transform="translate(-409.108 -109.089)"/><path class="a" d="M458.583,119.177l1.022.939a5.476,5.476,0,0,1-4.57,2.233,5.047,5.047,0,0,1-5.174-5.321,5.134,5.134,0,0,1,5.132-5.32,4.839,4.839,0,0,1,4.966,5.195,4.614,4.614,0,0,1-.063.709h-8.282a3.532,3.532,0,0,0,3.567,3.3A4.225,4.225,0,0,0,458.583,119.177Zm-6.97-2.879h6.635a3.252,3.252,0,0,0-3.234-3.151,3.421,3.421,0,0,0-3.4,3.151Z" transform="translate(-416.289 -108.87)"/></g><g transform="translate(0.852)"><rect class="b" width="2.898" height="2.898" transform="translate(0 0.211)"/><path class="a" d="M4.755,15.288V4.864H2.009V15.288Zm18.2.106V12.838a6.9,6.9,0,0,1-.994-.064,1.14,1.14,0,0,1-.646-.286,1.116,1.116,0,0,1-.286-.623,6.369,6.369,0,0,1-.065-1.007V7.212h1.988V4.864H20.968V.8H18.223V10.88a8.98,8.98,0,0,0,.22,2.149,2.986,2.986,0,0,0,.732,1.385,2.927,2.927,0,0,0,1.339.752,8.069,8.069,0,0,0,2.1.231Zm15.74-.106V0H35.949V15.288Zm-23.121-9.4a4.154,4.154,0,0,0-3.194-1.238,4.044,4.044,0,0,0-1.8.4A3.889,3.889,0,0,0,9.216,6.167l-.15.193v-1.5H6.357V15.288H9.086V10.12c0-.064,0-.126,0-.188a3.131,3.131,0,0,1,.724-2.162,2.367,2.367,0,0,1,1.743-.739,2.22,2.22,0,0,1,1.8.721,3.069,3.069,0,0,1,.6,2h0v.026h0v5.51h2.769V9.37A4.927,4.927,0,0,0,15.575,5.891Zm18.943,4.164a5.6,5.6,0,0,0-.4-2.108,5.407,5.407,0,0,0-1.105-1.721,5.034,5.034,0,0,0-1.7-1.156,5.585,5.585,0,0,0-2.18-.415,5.313,5.313,0,0,0-2.117.427,5.4,5.4,0,0,0-2.879,2.879,5.308,5.308,0,0,0-.427,2.117A5.549,5.549,0,0,0,24.12,12.2a5.159,5.159,0,0,0,2.867,2.878,5.77,5.77,0,0,0,2.234.427,5.916,5.916,0,0,0,4.637-2.046l-1.976-1.507a3.626,3.626,0,0,1-2.64,1.165,3.147,3.147,0,0,1-1.9-.533,2.644,2.644,0,0,1-.991-1.447l-.028-.1h8.191ZM26.351,9.1A2.538,2.538,0,0,1,29.116,7,2.536,2.536,0,0,1,31.882,9.1Z" transform="translate(-1.933)"/><path class="a" d="M85.987,29.549a1.037,1.037,0,0,0-.541-.543,1.006,1.006,0,0,0-.79,0,1.028,1.028,0,0,0-.323.219,1.048,1.048,0,0,0-.219.323,1.011,1.011,0,0,0,0,.79,1.035,1.035,0,0,0,.541.541,1.011,1.011,0,0,0,.79,0,1.047,1.047,0,0,0,.323-.219,1.028,1.028,0,0,0,.219-.323,1.006,1.006,0,0,0,0-.79Zm-.165.72a.844.844,0,0,1-.179.267.838.838,0,1,1,.179-.267Zm-.579-.243a.328.328,0,0,0,.2-.092.307.307,0,0,0,.078-.231.332.332,0,0,0-.1-.26.454.454,0,0,0-.311-.09H84.66v1.161h.213v-.475h.156l.289.475h.223Zm-.115-.168q-.049,0-.1,0h-.156v-.323h.254a.271.271,0,0,1,.089.019.154.154,0,0,1,.064.049.151.151,0,0,1,.024.092.148.148,0,0,1-.024.092.152.152,0,0,1-.064.049.3.3,0,0,1-.09.017Z" transform="translate(-46.098 -15.574)"/></g><g transform="translate(131.125 25.033)"><path class="a" d="M284.2,55.13h16.516v2.921H294.1V73.224H290.79V58.051H284.2Z" transform="translate(-284.2 -54.716)"/><path class="a" d="M339.082,63.668a9.383,9.383,0,1,1-9.357-9.434A9.246,9.246,0,0,1,339.082,63.668Zm-3.36.052c0-3.722-2.585-6.591-6.023-6.591-3.515,0-6.047,2.816-6.047,6.54s2.585,6.591,6.074,6.591C333.189,70.26,335.722,67.442,335.722,63.72Z" transform="translate(-303.646 -54.234)"/><path class="a" d="M382.37,63.668a9.383,9.383,0,1,1-9.357-9.434A9.245,9.245,0,0,1,382.37,63.668Zm-3.36.052c0-3.722-2.585-6.591-6.023-6.591-3.515,0-6.047,2.816-6.047,6.54s2.585,6.591,6.074,6.591C376.477,70.26,379.01,67.442,379.01,63.72Z" transform="translate(-326.954 -54.234)"/><path class="a" d="M411.6,55.13V70.354h9.615v2.869H408.292V55.13Z" transform="translate(-351.015 -54.716)"/><path class="a" d="M438.558,60.027c0-3.153,2.816-5.687,7.367-5.687a9.832,9.832,0,0,1,7.263,2.895l-1.836,2.3a8.022,8.022,0,0,0-5.531-2.3c-2.637,0-4.006,1.215-4.006,2.533,0,1.37.827,2.12,4.523,2.327,5.351.336,7.263,1.99,7.263,5.273,0,3.205-2.843,5.79-7.6,5.79A10.536,10.536,0,0,1,437.86,69.9l1.757-2.326a8.951,8.951,0,0,0,6.488,2.688c2.792,0,4.264-1.241,4.264-2.662,0-1.448-.877-2.275-4.5-2.481C440.417,64.731,438.558,63.233,438.558,60.027Z" transform="translate(-366.935 -54.289)"/></g><g transform="translate(0 25.033)"><path class="a" d="M7,55.13c6.074,0,9.8,3.67,9.8,9.021,0,5.247-3.851,9.073-9.848,9.073H0V55.13Zm-3.7,2.921V70.3h3.67c4.032,0,6.462-2.585,6.462-6.1s-2.43-6.152-6.462-6.152Z" transform="translate(0 -54.716)"/><path class="a" d="M54,55.13v2.843H43.741v4.7h9.538v2.844H43.741V70.38H54v2.844H40.432V55.13Z" transform="translate(-21.77 -54.716)"/><path class="a" d="M73.049,60.027c0-3.153,2.816-5.687,7.367-5.687a9.831,9.831,0,0,1,7.264,2.895l-1.836,2.3a8.023,8.023,0,0,0-5.531-2.3c-2.637,0-4.007,1.215-4.007,2.533,0,1.37.827,2.12,4.523,2.327,5.351.336,7.263,1.99,7.263,5.273,0,3.205-2.843,5.79-7.6,5.79A10.537,10.537,0,0,1,72.352,69.9l1.758-2.326A8.947,8.947,0,0,0,80.6,70.263c2.792,0,4.265-1.241,4.265-2.662,0-1.448-.879-2.275-4.5-2.481C74.913,64.731,73.049,63.233,73.049,60.027Z" transform="translate(-38.956 -54.289)"/><path class="a" d="M114.41,55.13V73.224H111.1V55.13Z" transform="translate(-59.82 -54.716)"/><path class="a" d="M125.973,63.668c0,3.955,2.74,6.617,6.152,6.617,3.128,0,5.17-1.68,5.609-4.653h-6.178V62.919h9.305a10.884,10.884,0,0,1,.1,1.292c0,5.376-3.462,8.943-8.969,8.943a9.107,9.107,0,0,1-9.357-9.434,9.352,9.352,0,0,1,9.641-9.486,8.8,8.8,0,0,1,7.7,4.032L137.657,60.1a6.224,6.224,0,0,0-5.4-3A6.311,6.311,0,0,0,125.973,63.668Z" transform="translate(-66.033 -54.234)"/><path class="a" d="M166.431,73.224V55.13h3.438l9.9,13.155V55.13h3.205V73.224h-3.386l-9.951-13.234V73.224Z" transform="translate(-89.611 -54.716)"/><path class="a" d="M212.923,74.729V77.65h-6.9V74.729Z" transform="translate(-110.928 -65.269)"/><path class="a" d="M236.374,73.224V55.13h3.438l9.9,13.155V55.13h3.2V73.224H249.53l-9.951-13.234V73.224Z" transform="translate(-127.271 -54.716)"/><g transform="translate(103.494 0.414)"><rect class="a" width="3.102" height="12.769" transform="translate(0.103 5.325)"/><rect class="b" width="3.309" height="3.128"/></g></g></svg>